<svg viewBox="0 0 100 100" xmlns="http://www.w3.org/2000/svg"><defs><linearGradient id="grad1" x1="0%" y1="0%" x2="100%" y2="100%"><stop offset="0%" style="stop-color:#34D399;stop-opacity:1" /><stop offset="100%" style="stop-color:#059669;stop-opacity:1" /></linearGradient></defs><path fill="url(#grad1)" d="M85,15H25a4,4,0,0,0-3.86,4.94L30,55H70L78.86,19.94A4,4,0,0,0,85,15Z" opacity="0.3"/><path fill="url(#grad1)" d="M78.6,60H31.4a6,6,0,0,0-5.91,5.2L22,85H8a2,2,0,0,0,0,4H23.33a8,8,0,0,0,7.88-6.93L35.2,69H74.8l4,13.07A8,8,0,0,0,86.67,90H92a2,2,0,0,0,0-4H88L81.51,65.2A6,6,0,0,0,78.6,60Zm-5.3,5H36.7L33,78H70.3Z"/><circle cx="35" cy="90" r="5" fill="#047857"/><circle cx="75" cy="90" r="5" fill="#047857"/><path fill="#34D399" d="M20,15H10a2,2,0,0,0,0,4H20a2,2,0,0,0,0-4Z"/><path fill="#34D399" d="M18,25H12a2,2,0,0,0,0,4h6a2,2,0,0,0,0-4Z"/><path fill="#34D399" d="M20,35H10a2,2,0,0,0,0,4H20a2,2,0,0,0,0-4Z"/></svg>